<?xml version="1.0" encoding="utf-8"?>
<!-- Generator: Adobe Illustrator 23.0.3, SVG Export Plug-In . SVG Version: 6.00 Build 0)  -->
<svg version="1.1" id="Layer_1" xmlns="http://www.w3.org/2000/svg" xmlns:xlink="http://www.w3.org/1999/xlink" x="0px" y="0px"
	 viewBox="0 0 500 80" style="enable-background:new 0 0 500 80;" xml:space="preserve">
<style type="text/css">
	.st0{fill:#001F66;}
	.st1{fill:#0062FF;}
	.st2{fill:#01CF65;}
	.st3{fill:#0062FF;stroke:#0062FF;stroke-width:0.6675;stroke-miterlimit:10;}
</style>
<path class="st0" d="M25.4,12.5c15,0,22.5,8.7,22.5,19.1c0,7.6-4.2,15.3-14.2,17.9l14.9,25.2H34.1L20.4,50.5h-5.9v24.3H2V12.5H25.4z
	 M25,22.9H14.5v18.3H25c7,0,10.1-3.7,10.1-9.3C35,26.4,31.9,22.9,25,22.9z"/>
<path class="st0" d="M76.3,75.6c-14.4,0-24.8-10-24.8-25.5c0-15.6,10.2-25.5,24.8-25.5c14.3,0,24.3,9.7,24.3,24.4
	c0,1.6-0.1,3.2-0.4,4.8H64.2c0.6,7.3,5.6,11.4,11.9,11.4c5.4,0,8.3-2.7,9.9-6h13.5C96.8,68.4,88.5,75.6,76.3,75.6z M64.3,45.4h23.5
	c-0.2-6.5-5.4-10.6-11.8-10.6C70,34.8,65.3,38.7,64.3,45.4z"/>
<path class="st0" d="M124.8,24.6c6.5,0,12.8,3,16.1,7.7V8.8h12.7v66h-12.7v-7.3c-2.9,4.5-8.5,8.1-16.2,8.1
	c-12.6,0-22.6-10.3-22.6-25.7C102.1,34.5,112.1,24.6,124.8,24.6z M127.9,35.5c-6.7,0-13,5-13,14.4c0,9.4,6.3,14.7,13,14.7
	c6.9,0,13.1-5.2,13.1-14.5C141,40.7,134.7,35.5,127.9,35.5z"/>
<path class="st1" d="M197.4,22.6h-23.6v15.6h21v9.9h-21v16.5h23.6v10.2h-36.1V12.4h36.1V22.6z"/>
<path class="st1" d="M205.6,35.6H200V25.4h5.6v-2.5c0-12.1,6.9-17.7,20.8-17.4V16c-6.1-0.2-8.1,1.8-8.1,7.3v2.1h8.7v10.3h-8.7v39.2
	h-12.7V35.6z"/>
<path class="st1" d="M252.2,75.6c-14.4,0-24.8-10-24.8-25.5c0-15.6,10.2-25.5,24.8-25.5c14.3,0,24.3,9.7,24.3,24.4
	c0,1.6-0.1,3.2-0.4,4.8h-36.1c0.6,7.3,5.6,11.4,11.9,11.4c5.4,0,8.3-2.7,9.9-6h13.5C272.6,68.4,264.4,75.6,252.2,75.6z M240.2,45.4
	h23.5c-0.2-6.5-5.4-10.6-11.8-10.6C245.9,34.8,241.1,38.7,240.2,45.4z"/>
<path class="st1" d="M302.4,24.6c12.3,0,20.6,6.4,23.3,17.5h-13.5c-1.4-4.2-4.7-6.9-9.9-6.9c-7,0-11.6,5.3-11.6,14.9
	c0,9.6,4.6,14.8,11.6,14.8c5.2,0,8.4-2.3,9.9-6.8h13.5c-2.7,10.5-11,17.5-23.3,17.5c-14.3,0-24.4-10-24.4-25.5
	C278,34.6,288.1,24.6,302.4,24.6z"/>
<path class="st1" d="M332.4,35.6h-5.9V25.4h5.9V13.2h12.6v12.2H356v10.3h-11.1v23.9c0,3.3,1.3,4.7,5.3,4.7h5.8v10.5h-7.8
	c-9.5,0-15.8-4-15.8-15.3V35.6z"/>
<ellipse class="st2" cx="366.9" cy="12.2" rx="7.7" ry="7.3"/>
<rect x="360.6" y="25.4" class="st1" width="12.5" height="49.4"/>
<path class="st1" d="M389,25.4l12.5,37.9L414,25.4h13.3L409,74.8h-15.2l-18.2-49.4H389z"/>
<path class="st1" d="M449.2,24.6c7.9,0,13.4,3.7,16.3,7.8v-7h12.6v49.4h-12.6v-7.2c-2.9,4.3-8.6,8-16.4,8
	c-12.5,0-22.5-10.3-22.5-25.7C426.6,34.5,436.6,24.6,449.2,24.6z M452.4,35.5c-6.7,0-13,5-13,14.4c0,9.4,6.3,14.7,13,14.7
	c6.9,0,13.1-5.2,13.1-14.5C465.5,40.7,459.3,35.5,452.4,35.5z"/>
<g>
	<g id="XMLID_47_">
		<path class="st1" d="M488,71.8V64h3.3c0.8,0,1.4,0.1,1.8,0.2c0.4,0.1,0.7,0.4,0.9,0.8c0.2,0.4,0.3,0.8,0.3,1.2
			c0,0.4-0.1,0.8-0.3,1.1c0,0-0.1,0.2-0.2,0.3c-0.4,0.5-1,0.6-1.3,0.7c0.2,0.2,0.4,0.4,0.6,0.7c0.2,0.3,0.5,0.6,0.9,1.3
			c0.2,0.3,0.5,0.9,1,1.5h-1.9l-1.1-1.7c-0.4-0.6-0.7-1-0.8-1.2c-0.1-0.2-0.3-0.3-0.5-0.3c-0.2-0.1-0.4-0.1-0.8-0.1h-0.3v3.3H488z
			 M489.6,67.3h1.2c0.8,0,1.2,0,1.4-0.1c0.2-0.1,0.3-0.2,0.4-0.3c0.1-0.2,0.2-0.4,0.2-0.6c0-0.3-0.1-0.5-0.2-0.6
			c-0.1-0.2-0.3-0.3-0.6-0.3c-0.1,0-0.5,0-1.2,0h-1.2V67.3z"/>
	</g>
	<g id="XMLID_43_">
		<path id="XMLID_44_" class="st3" d="M491,74.9c-0.9,0-1.9-0.2-2.7-0.6c-0.4-0.2-0.8-0.4-1.2-0.6c-0.4-0.3-0.7-0.5-1-0.9
			c-0.3-0.3-0.6-0.7-0.9-1c-0.3-0.4-0.5-0.8-0.6-1.2c-0.4-0.9-0.6-1.8-0.6-2.7s0.2-1.9,0.6-2.7c0.2-0.4,0.4-0.8,0.6-1.2
			c0.3-0.4,0.5-0.7,0.9-1c0.3-0.3,0.7-0.6,1-0.9c0.4-0.3,0.8-0.5,1.2-0.6c0.9-0.4,1.8-0.6,2.7-0.6s1.9,0.2,2.7,0.6
			c0.4,0.2,0.8,0.4,1.2,0.6c0.4,0.3,0.7,0.5,1,0.9c0.3,0.3,0.6,0.7,0.9,1c0.3,0.4,0.5,0.8,0.6,1.2c0.4,0.9,0.6,1.8,0.6,2.7
			s-0.2,1.9-0.6,2.7c-0.2,0.4-0.4,0.8-0.6,1.2c-0.3,0.4-0.5,0.7-0.9,1c-0.3,0.3-0.7,0.6-1,0.9c-0.4,0.3-0.8,0.5-1.2,0.6
			C492.8,74.7,491.9,74.9,491,74.9z M491,61.5c-3.5,0-6.4,2.9-6.4,6.4c0,3.5,2.9,6.4,6.4,6.4s6.4-2.9,6.4-6.4
			C497.4,64.4,494.5,61.5,491,61.5z"/>
	</g>
</g>
</svg>
